:FULLY-SPECIFIED
:FORCE-ALL-JOINTS-BE-3DOF
:DEGREES
2141
root -2.36229 15.0857 1.1209 -176.622 5.14664 -173.584
lfemur -51.6603 17.0293 -20.6926
ltibia 39.9248 -0 0
lfoot 9.78818 20.2505 -0.614116
ltoes -8.00831 0 0
rfemur -1.43418 -3.7373 26.9154
rtibia 46.6152 -0 0
rfoot -26.3352 -0.62505 0.354608
rtoes -30.7654 0 0
lowerback 11.5585 1.29358 -0.576931
upperback -2.55079 2.08147 3.38851
thorax -9.36965 1.19849 3.54717
lowerneck -4.71488 -2.29926 -7.14303
upperneck 6.64327 -2.87926 4.78966
head 3.246 -1.44537 2.69579
lclavicle 1.13068e-14 -1.96065e-14 4.82742e-31
lhumerus 43.3569 6.85252 116.262
lradius 17.5536 -0 0
lwrist -65.0173 0 0
lhand -35.6836 55.9266 0.0524901
lfingers 7.12502 -0 0
lthumb -10.4542 53.0109 -2.9826
rclavicle 1.13068e-14 -1.96065e-14 4.82742e-31
rhumerus -37.3107 31.6479 -95.0424
rradius 102.198 -0 0
rwrist -61.0711 0 0
rhand -14.1466 -33.1298 0.00504252
rfingers 7.12502 -0 0
rthumb 11.9884 -62.7717 0.00294392
2142
root -2.33977 15.0714 0.910814 -176.708 4.71555 -173.752
lfemur -50.9165 16.9071 -20.4823
ltibia 40.1072 -0 0
lfoot 9.29201 20.4629 -0.676053
ltoes -8.2807 0 0
rfemur -2.16313 -3.79185 26.583
rtibia 46.7735 -0 0
rfoot -25.9445 -0.453655 0.390519
rtoes -30.4115 0 0
lowerback 11.5887 1.29423 -0.721401
upperback -2.53083 2.05409 3.34136
thorax -9.36356 1.18994 3.58328
lowerneck -4.63741 -2.42283 -7.21673
upperneck 6.64314 -3.05426 4.86435
head 3.24998 -1.53426 2.72115
lclavicle 1.0987e-14 -1.93749e-14 5.59877e-31
lhumerus 41.8658 6.86025 115.917
lradius 18.6485 -0 0
lwrist -63.4962 0 0
lhand -35.344 56.5522 0.0445111
lfingers 7.12502 -0 0
lthumb -10.2185 50.884 -3.27582
rclavicle 1.0987e-14 -1.93749e-14 5.59877e-31
rhumerus -36.0074 31.5457 -94.25
rradius 101.059 -0 0
rwrist -59.8845 0 0
rhand -14.2351 -33.2887 0.00647299
rfingers 7.12502 -0 0
rthumb 11.9031 -62.9357 0.00421811
2143
root -2.31657 15.0568 0.694737 -176.795 4.27091 -173.924
lfemur -50.152 16.7779 -20.2672
ltibia 40.298 -0 0
lfoot 8.77856 20.6806 -0.737947
ltoes -8.56823 0 0
rfemur -2.91584 -3.85165 26.2418
rtibia 46.938 -0 0
rfoot -25.5419 -0.27831 0.426412
rtoes -30.0464 0 0
lowerback 11.6199 1.295 -0.870174
upperback -2.5101 2.02595 3.29279
thorax -9.3572 1.18116 3.62046
lowerneck -4.55729 -2.55007 -7.29272
upperneck 6.64343 -3.23465 4.94165
head 3.25425 -1.62588 2.74738
lclavicle 1.06481e-14 -1.91234e-14 6.40615e-31
lhumerus 40.3277 6.85527 115.556
lradius 19.7797 -0 0
lwrist -61.9205 0 0
lhand -34.9971 57.1443 0.0347894
lfingers 7.12502 -0 0
lthumb -9.96486 48.7539 -3.56832
rclavicle 1.06481e-14 -1.91234e-14 6.40615e-31
rhumerus -34.6628 31.4275 -93.4348
rradius 99.8885 -0 0
rwrist -58.6565 0 0
rhand -14.3232 -33.4492 0.00800645
rfingers 7.12502 -0 0
rthumb 11.8183 -63.1014 0.00560219
2144
root -2.29273 15.0417 0.472894 -176.883 3.81323 -174.1
lfemur -49.3678 16.6414 -20.0478
ltibia 40.4971 -0 0
lfoot 8.24845 20.9036 -0.79956
ltoes -8.87041 0 0
rfemur -3.69143 -3.91703 25.8921
rtibia 47.1084 -0 0
rfoot -25.1279 -0.0991479 0.462149
rtoes -29.6703 0 0
lowerback 11.652 1.2959 -1.02309
upperback -2.48864 1.99707 3.24285
thorax -9.35058 1.17214 3.65866
lowerneck -4.4746 -2.68083 -7.37093
upperneck 6.64408 -3.42023 5.02146
head 3.25881 -1.72011 2.77442
lclavicle 1.02908e-14 -1.88526e-14 7.24466e-31
lhumerus 38.7446 6.83663 115.18
lradius 20.9459 -0 0
lwrist -60.2921 0 0
lhand -34.6432 57.7036 0.0234604
lfingers 7.12502 -0 0
lthumb -9.69346 46.6204 -3.85912
rclavicle 1.02908e-14 -1.88526e-14 7.24466e-31
rhumerus -33.279 31.2918 -92.5987
rradius 98.6872 -0 0
rwrist -57.3887 0 0
rhand -14.4108 -33.6113 0.0096306
rfingers 7.12502 -0 0
rthumb 11.7337 -63.2685 0.00708405
